<svg xmlns="http://www.w3.org/2000/svg" viewBox="0 0 352.78 103.3"><defs><style>.cls-1{fill:#fff;}</style></defs><g id="Layer_2" data-name="Layer 2"><g id="GUIDES"><path class="cls-1" d="M60.34,29.51a3,3,0,0,0-1.85.77L45.22,43.51c-.42.42-.76.28-.76-.32l0-12.6a1.09,1.09,0,0,0-1.08-1.08H30.83a1.08,1.08,0,0,1-1.08-1.08l0-12.59a1.08,1.08,0,0,0-1.08-1.08H16.11A1.08,1.08,0,0,0,15,15.84l0,12.59a1.08,1.08,0,0,1-1.09,1.08H1.31A1.09,1.09,0,0,0,.23,30.59L0,102.22a1.08,1.08,0,0,0,1.08,1.08H72.7a1.08,1.08,0,0,0,1.09-1.08L74,30.59a1.07,1.07,0,0,0-1.07-1.08Z"/><path class="cls-1" d="M45.36.76A3,3,0,0,0,43.51,0H30.92a1.08,1.08,0,0,0-1.09,1.08l0,12.59a1.09,1.09,0,0,0,1.08,1.09h12.6a1.07,1.07,0,0,1,1.07,1.08l0,12.59a1.08,1.08,0,0,0,1.08,1.08h12.6a1.08,1.08,0,0,0,1.08-1.08l0-12.59A3,3,0,0,0,58.54,14Z"/><path class="cls-1" d="M105.81,103.3a2.47,2.47,0,0,1-2.47-2.46V32.09a2.47,2.47,0,0,1,2.47-2.46h10.57a2.27,2.27,0,0,1,2.46,2c0,1.09.35,2,.79,2A6.79,6.79,0,0,0,122.26,32l.84-.74a7.68,7.68,0,0,1,4.32-1.62h11.29a6.9,6.9,0,0,1,4.21,1.74L144.55,33a5.86,5.86,0,0,0,2.81,1.74,6.37,6.37,0,0,0,2.92-1.63l2.13-1.87a7.6,7.6,0,0,1,4.31-1.62H168a6.9,6.9,0,0,1,4.2,1.74l7,7A6.86,6.86,0,0,1,181,42.62v58.22a2.47,2.47,0,0,1-2.47,2.46h-15a2.46,2.46,0,0,1-2.46-2.46v-51a5.75,5.75,0,0,0-.79-3.24,5.79,5.79,0,0,0-3.25-.79h-.33a6.5,6.5,0,0,0-3.53.93,5.21,5.21,0,0,0-1.07,3.39v50.68a2.47,2.47,0,0,1-2.46,2.46h-15a2.47,2.47,0,0,1-2.47-2.46v-51a5.76,5.76,0,0,0-.78-3.24,5.79,5.79,0,0,0-3.25-.79h-.33a6.47,6.47,0,0,0-3.53.93,5.21,5.21,0,0,0-1.07,3.39v50.68a2.47,2.47,0,0,1-2.46,2.46Z"/><path class="cls-1" d="M201.24,103.3a6.85,6.85,0,0,1-4.21-1.74l-6.19-6.19a6.88,6.88,0,0,1-1.74-4.2V65.94a6.9,6.9,0,0,1,1.74-4.2l6.48-6.47a6.83,6.83,0,0,1,4.2-1.75h13.7a2.47,2.47,0,0,0,2.47-2.46v-1.9a5.79,5.79,0,0,0-.85-3.32,5.79,5.79,0,0,0-3.32-.85h-17a2.48,2.48,0,0,1-2.47-2.47V32.09a2.47,2.47,0,0,1,2.47-2.46H225a6.9,6.9,0,0,1,4.21,1.74L235.86,38a6.87,6.87,0,0,1,1.74,4.21v58.65a2.47,2.47,0,0,1-2.46,2.46H224.57A2.41,2.41,0,0,1,222.1,101c0-1.29-.35-2.35-.78-2.35a6.71,6.71,0,0,0-2.62,1.64l-1.59,1.41a7.49,7.49,0,0,1-4.3,1.64Zm8.13-15.71a6,6,0,0,0,3.11.64h.76a6.14,6.14,0,0,0,3.46-.93,5.53,5.53,0,0,0,1-3.39V69.22a2.48,2.48,0,0,0-2.47-2.47h-2.46a6.29,6.29,0,0,0-3.25.71,5.44,5.44,0,0,0-.78,3.18V84.48A6,6,0,0,0,209.37,87.59Z"/><path class="cls-1" d="M248.09,103.3a2.47,2.47,0,0,1-2.46-2.46V32.09a2.47,2.47,0,0,1,2.46-2.46h10.58a2.35,2.35,0,0,1,2.46,2.2c0,1.22.35,2.21.78,2.21a6.72,6.72,0,0,0,2.63-1.64l1.29-1.14a7.54,7.54,0,0,1,4.31-1.63h11.71a6.87,6.87,0,0,1,4.21,1.74l7,7a6.9,6.9,0,0,1,1.74,4.21v58.22a2.47,2.47,0,0,1-2.47,2.46h-15a2.47,2.47,0,0,1-2.46-2.46v-51a5.76,5.76,0,0,0-.78-3.24,5.84,5.84,0,0,0-3.25-.79h-.76a6.47,6.47,0,0,0-3.53.93,5.21,5.21,0,0,0-1.07,3.39v50.68a2.47,2.47,0,0,1-2.46,2.46Z"/><path class="cls-1" d="M316.27,103.3a6.84,6.84,0,0,1-4.2-1.74l-7.33-7.32A6.85,6.85,0,0,1,303,90V42.91a6.82,6.82,0,0,1,1.74-4.21l7.33-7.33a6.9,6.9,0,0,1,4.2-1.74H339.5a6.9,6.9,0,0,1,4.21,1.74L351,38.7a6.83,6.83,0,0,1,1.75,4.21V90A6.86,6.86,0,0,1,351,94.24l-7.32,7.32a6.85,6.85,0,0,1-4.21,1.74Zm7.56-17.13a5.87,5.87,0,0,0,3.39.92h1.33a5.84,5.84,0,0,0,3.39-.92,5.79,5.79,0,0,0,.93-3.39V50.16a5.76,5.76,0,0,0-.93-3.39,5.76,5.76,0,0,0-3.39-.93h-1.33a5.79,5.79,0,0,0-3.39.93,5.84,5.84,0,0,0-.92,3.39V82.78A5.87,5.87,0,0,0,323.83,86.17Z"/></g></g></svg>